<svg id="Layer_1" data-name="Layer 1" xmlns="http://www.w3.org/2000/svg" viewBox="0 0 994 39.38"><defs><style>.cls-1{fill:#fff;}</style></defs><title>freeshipping-thin</title><rect width="994" height="39.38"/><path class="cls-1" d="M20.92,101.66V91.55h4.34v0.92H22v3.44h2.44v0.92H22v4.82H20.92Z" transform="translate(0 -77.81)"/><path class="cls-1" d="M30.57,101.66V91.55H33a2.87,2.87,0,0,1,2,.69,2.47,2.47,0,0,1,.76,1.92,2.36,2.36,0,0,1-1.62,2.48l1.71,5H34.71l-1.62-4.79-1.43.06v4.73H30.57Zm1.09-9.18V96h1a2.34,2.34,0,0,0,1.6-.43,2.08,2.08,0,0,0,0-2.63,2.35,2.35,0,0,0-1.6-.43h-1Z" transform="translate(0 -77.81)"/><path class="cls-1" d="M41.77,91.55h4.62v0.92H42.86v3.44h2.6v0.92h-2.6v3.89h3.7v0.92H41.77V91.55Z" transform="translate(0 -77.81)"/><path class="cls-1" d="M52.19,91.55h4.62v0.92H53.28v3.44h2.6v0.92h-2.6v3.89H57v0.92H52.19V91.55Z" transform="translate(0 -77.81)"/><path class="cls-1" d="M74.53,94.15h-1Q73.37,92.33,72,92.33a1.38,1.38,0,0,0-1,.37,1.29,1.29,0,0,0-.38,1A1.73,1.73,0,0,0,71,94.79a4.38,4.38,0,0,0,1,.9q0.6,0.39,1.19.82a3.82,3.82,0,0,1,1,1.13,3,3,0,0,1,.42,1.59,2.35,2.35,0,0,1-2.59,2.58A2.33,2.33,0,0,1,70.2,101a3.16,3.16,0,0,1-.71-2.07h1a2.29,2.29,0,0,0,.45,1.42,1.49,1.49,0,0,0,1.22.51,1.42,1.42,0,0,0,1.1-.43,1.75,1.75,0,0,0,.4-1.23,1.82,1.82,0,0,0-.3-1,2.88,2.88,0,0,0-.75-0.79l-1-.71q-0.53-.39-1-0.76A3,3,0,0,1,69.9,95a2.64,2.64,0,0,1-.3-1.25,2.25,2.25,0,0,1,.67-1.71A2.44,2.44,0,0,1,72,91.41a2.31,2.31,0,0,1,1.77.71A3.07,3.07,0,0,1,74.53,94.15Z" transform="translate(0 -77.81)"/><path class="cls-1" d="M80.32,91.55h1.09v4.37h3V91.55h1.09v10.11H84.38V96.84h-3v4.82H80.32V91.55Z" transform="translate(0 -77.81)"/><path class="cls-1" d="M91.61,91.55H92.7v10.11H91.61V91.55Z" transform="translate(0 -77.81)"/><path class="cls-1" d="M98.69,101.66V91.55h2.38a2.6,2.6,0,0,1,2,.76,3.13,3.13,0,0,1,0,4,2.6,2.6,0,0,1-2,.76H99.78v4.56H98.69Zm1.09-9.18v3.7h1.15a1.85,1.85,0,0,0,0-3.7H99.78Z" transform="translate(0 -77.81)"/><path class="cls-1" d="M109.11,101.66V91.55h2.38a2.6,2.6,0,0,1,2,.76,3.13,3.13,0,0,1,0,4,2.6,2.6,0,0,1-2,.76H110.2v4.56h-1.09Zm1.09-9.18v3.7h1.15a1.85,1.85,0,0,0,0-3.7H110.2Z" transform="translate(0 -77.81)"/><path class="cls-1" d="M119.75,91.55h1.09v10.11h-1.09V91.55Z" transform="translate(0 -77.81)"/><path class="cls-1" d="M126.83,91.55h1.71l2.6,7.45h0V91.55h1.09v10.11h-1.18L128,92.87h0v8.79h-1.09V91.55Z" transform="translate(0 -77.81)"/><path class="cls-1" d="M143.46,94.66h-1.09q-0.15-2.32-1.58-2.32a1.44,1.44,0,0,0-1.37,1,8.85,8.85,0,0,0-.43,3.3,8.85,8.85,0,0,0,.43,3.3,1.44,1.44,0,0,0,1.37,1,1.58,1.58,0,0,0,1.18-.41,1.62,1.62,0,0,0,.41-1.18V97.85H141V96.93h2.46v4.73h-0.7l-0.14-.76a2.17,2.17,0,0,1-1.83.9,2.38,2.38,0,0,1-2.15-1.22,7.91,7.91,0,0,1-.75-4,7.91,7.91,0,0,1,.75-4,2.38,2.38,0,0,1,2.15-1.22,2.42,2.42,0,0,1,1.18.27,2.19,2.19,0,0,1,.81.75,3.91,3.91,0,0,1,.47,1A6.1,6.1,0,0,1,143.46,94.66Z" transform="translate(0 -77.81)"/><path class="cls-1" d="M152,91.55l-0.28,2.21,2-1L154,93.71l-2.16.45,1.6,1.57-0.81.62-1.11-1.93-1.11,1.93-0.81-.62,1.6-1.57-2.16-.45,0.28-.92,2,1-0.28-2.21H152Z" transform="translate(0 -77.81)"/><path class="cls-1" d="M171.94,96.76l1,0.06a8.94,8.94,0,0,1-.7,3,6.57,6.57,0,0,0,1.23,1.09l-0.59.76a4.15,4.15,0,0,1-1.26-1,2.69,2.69,0,0,1-2.14,1.09,2.57,2.57,0,0,1-1.89-.69,2.53,2.53,0,0,1-.7-1.88,2.76,2.76,0,0,1,.09-0.7,4.57,4.57,0,0,1,.19-0.59,2.72,2.72,0,0,1,.33-0.55l0.34-.45q0.1-.13.39-0.43l0.33-.36a6.22,6.22,0,0,1-.71-2.59,2.3,2.3,0,0,1,.5-1.59,1.63,1.63,0,0,1,1.27-.55,1.84,1.84,0,0,1,1.35.52,1.69,1.69,0,0,1,.52,1.25,2.84,2.84,0,0,1-.29,1.26,3.8,3.8,0,0,1-.58.91q-0.29.31-.9,0.9A12.9,12.9,0,0,0,171.49,99,8.48,8.48,0,0,0,171.94,96.76Zm-4.06,2.38a1.77,1.77,0,0,0,.44,1.27,1.64,1.64,0,0,0,1.25.47,1.46,1.46,0,0,0,.78-0.24A2.16,2.16,0,0,0,171,100a16.85,16.85,0,0,1-2-3.07,4.58,4.58,0,0,0-.75,1A2.4,2.4,0,0,0,167.88,99.14Zm1-5.67q0,0.15,0,.31a2.83,2.83,0,0,0,0,.32L169,94.36a2.29,2.29,0,0,0,.09.29l0.08,0.24,0.1,0.27,0.09,0.24a6.32,6.32,0,0,0,.85-1.16,2.37,2.37,0,0,0,.28-1.15,1,1,0,0,0-.22-0.64,0.64,0.64,0,0,0-.5-0.28Q168.83,92.17,168.83,93.47Z" transform="translate(0 -77.81)"/><path class="cls-1" d="M186.39,101.66V91.55h4.34v0.92h-3.25v3.44h2.44v0.92h-2.44v4.82h-1.09Z" transform="translate(0 -77.81)"/><path class="cls-1" d="M196,101.66V91.55h2.44a2.87,2.87,0,0,1,2,.69,2.47,2.47,0,0,1,.76,1.92,2.36,2.36,0,0,1-1.62,2.48l1.71,5h-1.15l-1.62-4.79-1.43.06v4.73H196Zm1.09-9.18V96h1a2.34,2.34,0,0,0,1.6-.43,2.08,2.08,0,0,0,0-2.63,2.35,2.35,0,0,0-1.6-.43h-1Z" transform="translate(0 -77.81)"/><path class="cls-1" d="M207.23,91.55h4.62v0.92h-3.53v3.44h2.6v0.92h-2.6v3.89H212v0.92h-4.79V91.55Z" transform="translate(0 -77.81)"/><path class="cls-1" d="M217.65,91.55h4.62v0.92h-3.53v3.44h2.6v0.92h-2.6v3.89h3.7v0.92h-4.79V91.55Z" transform="translate(0 -77.81)"/><path class="cls-1" d="M235.46,91.55h1.09v10.11h-1.09V91.55Z" transform="translate(0 -77.81)"/><path class="cls-1" d="M242.54,91.55h1.71l2.6,7.45h0V91.55H248v10.11H246.8l-3.14-8.79h0v8.79h-1.09V91.55Z" transform="translate(0 -77.81)"/><path class="cls-1" d="M258.5,94.15h-1q-0.15-1.82-1.55-1.82a1.38,1.38,0,0,0-1,.37,1.29,1.29,0,0,0-.38,1,1.73,1.73,0,0,0,.42,1.13,4.38,4.38,0,0,0,1,.9q0.6,0.39,1.19.82a3.82,3.82,0,0,1,1,1.13,3,3,0,0,1,.42,1.59A2.35,2.35,0,0,1,256,101.8a2.33,2.33,0,0,1-1.85-.78,3.16,3.16,0,0,1-.71-2.07h1a2.29,2.29,0,0,0,.45,1.42,1.49,1.49,0,0,0,1.22.51,1.42,1.42,0,0,0,1.1-.43,1.75,1.75,0,0,0,.4-1.23,1.82,1.82,0,0,0-.3-1,2.88,2.88,0,0,0-.75-0.79l-1-.71q-0.53-.39-1-0.76a3,3,0,0,1-.75-0.94,2.64,2.64,0,0,1-.3-1.25,2.25,2.25,0,0,1,.67-1.71,2.44,2.44,0,0,1,1.76-.64,2.31,2.31,0,0,1,1.77.71A3.07,3.07,0,0,1,258.5,94.15Z" transform="translate(0 -77.81)"/><path class="cls-1" d="M263.47,91.55h5.24v0.92h-2.07v9.18h-1.09V92.47h-2.07V91.55Z" transform="translate(0 -77.81)"/><path class="cls-1" d="M276.52,91.41q2.86,0,2.86,5.19t-2.86,5.19q-2.86,0-2.86-5.19T276.52,91.41ZM278,99.22A14.11,14.11,0,0,0,278,94a2.68,2.68,0,0,0-.62-1.32,1.38,1.38,0,0,0-1.81,0A2.68,2.68,0,0,0,275,94a14.11,14.11,0,0,0,0,5.24,2.68,2.68,0,0,0,.62,1.32,1.38,1.38,0,0,0,1.81,0A2.68,2.68,0,0,0,278,99.22Z" transform="translate(0 -77.81)"/><path class="cls-1" d="M285.14,101.66V91.55h2.44a2.87,2.87,0,0,1,2,.69,2.47,2.47,0,0,1,.76,1.92,2.36,2.36,0,0,1-1.62,2.48l1.71,5h-1.15l-1.62-4.79-1.43.06v4.73h-1.09Zm1.09-9.18V96h1a2.34,2.34,0,0,0,1.6-.43,2.08,2.08,0,0,0,0-2.63,2.35,2.35,0,0,0-1.6-.43h-1Z" transform="translate(0 -77.81)"/><path class="cls-1" d="M296.34,91.55H301v0.92h-3.53v3.44H300v0.92h-2.6v3.89h3.7v0.92h-4.79V91.55Z" transform="translate(0 -77.81)"/><path class="cls-1" d="M314.07,101.66V91.55h2.44a2.87,2.87,0,0,1,2,.69,2.47,2.47,0,0,1,.76,1.92,2.36,2.36,0,0,1-1.62,2.48l1.71,5h-1.15l-1.62-4.79-1.43.06v4.73h-1.09Zm1.09-9.18V96h1a2.34,2.34,0,0,0,1.6-.43,2.08,2.08,0,0,0,0-2.63,2.35,2.35,0,0,0-1.6-.43h-1Z" transform="translate(0 -77.81)"/><path class="cls-1" d="M325.27,91.55h4.62v0.92h-3.53v3.44H329v0.92h-2.6v3.89h3.7v0.92h-4.79V91.55Z" transform="translate(0 -77.81)"/><path class="cls-1" d="M334.86,91.55h5.24v0.92H338v9.18h-1.09V92.47h-2.07V91.55Z" transform="translate(0 -77.81)"/><path class="cls-1" d="M345.33,91.55h1.09V99q0,1.9,1.48,1.9t1.48-1.9V91.55h1.09V99a3.07,3.07,0,0,1-.64,2,2.86,2.86,0,0,1-3.88,0,3.07,3.07,0,0,1-.64-2V91.55Z" transform="translate(0 -77.81)"/><path class="cls-1" d="M356.53,101.66V91.55H359a2.87,2.87,0,0,1,2,.69,2.47,2.47,0,0,1,.76,1.92,2.36,2.36,0,0,1-1.62,2.48l1.71,5h-1.15L359,96.87l-1.43.06v4.73h-1.09Zm1.09-9.18V96h1a2.34,2.34,0,0,0,1.6-.43,2.08,2.08,0,0,0,0-2.63,2.35,2.35,0,0,0-1.6-.43h-1Z" transform="translate(0 -77.81)"/><path class="cls-1" d="M367.59,91.55h1.71L371.9,99h0V91.55H373v10.11h-1.18l-3.14-8.79h0v8.79h-1.09V91.55Z" transform="translate(0 -77.81)"/><path class="cls-1" d="M383.55,94.15h-1q-0.15-1.82-1.55-1.82a1.38,1.38,0,0,0-1,.37,1.29,1.29,0,0,0-.38,1,1.73,1.73,0,0,0,.42,1.13,4.38,4.38,0,0,0,1,.9q0.6,0.39,1.19.82a3.82,3.82,0,0,1,1,1.13,3,3,0,0,1,.42,1.59,2.35,2.35,0,0,1-2.59,2.58,2.33,2.33,0,0,1-1.85-.78,3.16,3.16,0,0,1-.71-2.07h1a2.29,2.29,0,0,0,.45,1.42,1.49,1.49,0,0,0,1.22.51,1.42,1.42,0,0,0,1.1-.43,1.75,1.75,0,0,0,.4-1.23,1.82,1.82,0,0,0-.3-1,2.88,2.88,0,0,0-.75-0.79l-1-.71q-0.53-.39-1-0.76a3,3,0,0,1-.75-0.94,2.64,2.64,0,0,1-.3-1.25,2.25,2.25,0,0,1,.67-1.71,2.44,2.44,0,0,1,1.76-.64,2.31,2.31,0,0,1,1.77.71A3.07,3.07,0,0,1,383.55,94.15Z" transform="translate(0 -77.81)"/><path class="cls-1" d="M791.28,87.3l-0.2,1.58,1.44-.7,0.2,0.66-1.54.32,1.14,1.12-0.58.44L791,89.34l-0.79,1.38-0.58-.44,1.14-1.12-1.54-.32,0.2-.66,1.44,0.7-0.2-1.58h0.66Z" transform="translate(0 -77.81)"/><path class="cls-1" d="M794.73,87.3h0.72l0.86,5.64h0l1.08-5.64h0.64l1.12,5.64h0L800,87.3h0.72l-1.16,7.22h-0.66l-1.14-5.67h0l-1.14,5.67h-0.66Z" transform="translate(0 -77.81)"/><path class="cls-1" d="M802.94,87.3h0.78v3.12h2.12V87.3h0.78v7.22h-0.78V91.08h-2.12v3.44h-0.78V87.3Z" transform="translate(0 -77.81)"/><path class="cls-1" d="M809.44,87.3h3.3V88h-2.52v2.46h1.86v0.66h-1.86v2.78h2.64v0.66h-3.42V87.3Z" transform="translate(0 -77.81)"/><path class="cls-1" d="M815.28,87.3h1.22l1.86,5.32h0V87.3h0.78v7.22h-0.84l-2.24-6.28h0v6.28h-0.78V87.3Z" transform="translate(0 -77.81)"/><path class="cls-1" d="M825.1,87.3h0.84l1.24,3.16,1.2-3.16h0.84l-1.66,4.16v3.06h-0.78V91.46Z" transform="translate(0 -77.81)"/><path class="cls-1" d="M833.38,87.2q2,0,2,3.71t-2,3.71q-2,0-2-3.71T833.38,87.2Zm1.08,5.58a10.09,10.09,0,0,0,0-3.74A1.93,1.93,0,0,0,834,88.1a1,1,0,0,0-1.29,0,1.92,1.92,0,0,0-.44.94,10.09,10.09,0,0,0,0,3.74,1.92,1.92,0,0,0,.44.94,1,1,0,0,0,1.29,0A1.93,1.93,0,0,0,834.47,92.78Z" transform="translate(0 -77.81)"/><path class="cls-1" d="M838,87.3h0.78v5.3q0,1.36,1.06,1.36t1.06-1.36V87.3h0.78v5.32a2.19,2.19,0,0,1-.46,1.46,2,2,0,0,1-2.77,0,2.19,2.19,0,0,1-.46-1.46V87.3Z" transform="translate(0 -77.81)"/><path class="cls-1" d="M851.56,89.16h-0.72a1.14,1.14,0,0,0-1.11-1.3,1,1,0,0,0-.72.27,0.91,0.91,0,0,0-.27.68,1.24,1.24,0,0,0,.3.81,3.13,3.13,0,0,0,.73.64q0.42,0.28.85,0.58a2.74,2.74,0,0,1,.73.8,2.15,2.15,0,0,1,.3,1.13,1.68,1.68,0,0,1-1.85,1.84,1.66,1.66,0,0,1-1.32-.56,2.26,2.26,0,0,1-.51-1.48h0.72a1.64,1.64,0,0,0,.32,1,1.06,1.06,0,0,0,.87.37,1,1,0,0,0,.79-0.31,1.25,1.25,0,0,0,.29-0.88,1.31,1.31,0,0,0-.21-0.71,2.06,2.06,0,0,0-.54-0.56l-0.7-.51-0.7-.54a2.12,2.12,0,0,1-.54-0.67,1.89,1.89,0,0,1-.21-0.89,1.61,1.61,0,0,1,.48-1.22,1.75,1.75,0,0,1,1.26-.46,1.65,1.65,0,0,1,1.26.51A2.19,2.19,0,0,1,851.56,89.16Z" transform="translate(0 -77.81)"/><path class="cls-1" d="M854.1,94.52V87.3h1.7a1.86,1.86,0,0,1,1.4.54,2.24,2.24,0,0,1,0,2.88,1.86,1.86,0,0,1-1.4.54h-0.92v3.26H854.1ZM854.88,88V90.6h0.82a1.32,1.32,0,0,0,0-2.64h-0.82Z" transform="translate(0 -77.81)"/><path class="cls-1" d="M860.14,87.3h3.3V88h-2.52v2.46h1.86v0.66h-1.86v2.78h2.64v0.66h-3.42V87.3Z" transform="translate(0 -77.81)"/><path class="cls-1" d="M866,87.3h1.22l1.86,5.32h0V87.3h0.78v7.22H869l-2.24-6.28h0v6.28H866V87.3Z" transform="translate(0 -77.81)"/><path class="cls-1" d="M872.58,94.52V87.3h1.34a2.67,2.67,0,0,1,1,.18,1.91,1.91,0,0,1,.76.58,2.77,2.77,0,0,1,.49,1.12,9.15,9.15,0,0,1,0,3.46,2.77,2.77,0,0,1-.49,1.12,1.91,1.91,0,0,1-.76.58,2.67,2.67,0,0,1-1,.18h-1.34ZM873.36,88v5.9h0.42a2.24,2.24,0,0,0,.77-0.11,1.28,1.28,0,0,0,.56-0.43,2.13,2.13,0,0,0,.36-0.9,9.82,9.82,0,0,0,0-3,2.13,2.13,0,0,0-.36-0.91,1.27,1.27,0,0,0-.56-0.43,2.21,2.21,0,0,0-.77-0.12h-0.42Z" transform="translate(0 -77.81)"/><path class="cls-1" d="M884.64,87.2q2,0,2,3.71t-2,3.71q-2,0-2-3.71T884.64,87.2Zm1.08,5.58a10.09,10.09,0,0,0,0-3.74,1.92,1.92,0,0,0-.44-0.94,1,1,0,0,0-1.29,0,1.93,1.93,0,0,0-.44.94,10.09,10.09,0,0,0,0,3.74,1.93,1.93,0,0,0,.44.94,1,1,0,0,0,1.29,0A1.92,1.92,0,0,0,885.73,92.78Z" transform="translate(0 -77.81)"/><path class="cls-1" d="M888.8,87.3h0.78L890.85,93h0l1.27-5.72h0.78l-1.7,7.22H890.5Z" transform="translate(0 -77.81)"/><path class="cls-1" d="M895.24,87.3h3.3V88H896v2.46h1.86v0.66H896v2.78h2.64v0.66h-3.42V87.3Z" transform="translate(0 -77.81)"/><path class="cls-1" d="M901.18,94.52V87.3h1.74a2.05,2.05,0,0,1,1.43.5,1.76,1.76,0,0,1,.54,1.38,1.69,1.69,0,0,1-1.16,1.77L905,94.52h-0.82L903,91.1l-1,0v3.38h-0.78ZM902,88v2.5h0.68a1.68,1.68,0,0,0,1.15-.31,1.49,1.49,0,0,0,0-1.88,1.68,1.68,0,0,0-1.15-.31H902Z" transform="translate(0 -77.81)"/><path class="cls-1" d="M911.12,92.54h0.72a1.26,1.26,0,0,0,.82,1.38V91c-0.23-.15-0.42-0.28-0.55-0.39a5.14,5.14,0,0,1-.45-0.42,1.65,1.65,0,0,1-.36-0.54,1.71,1.71,0,0,1-.12-0.64,1.67,1.67,0,0,1,.41-1.15,1.64,1.64,0,0,1,1.07-.54v-1h0.5v1a1.59,1.59,0,0,1,1.11.62,2.21,2.21,0,0,1,.41,1.3H914a2.06,2.06,0,0,0-.23-0.83,1,1,0,0,0-.58-0.49v2.55l0.6,0.42a5.19,5.19,0,0,1,.49.45,1.83,1.83,0,0,1,.42.64,2.17,2.17,0,0,1,.13.76,1.74,1.74,0,0,1-.45,1.24,1.8,1.8,0,0,1-1.19.55v1.16h-0.5V94.52a1.66,1.66,0,0,1-1.14-.64A2.17,2.17,0,0,1,911.12,92.54Zm1.54-2.44V87.9a0.89,0.89,0,0,0-.55.35,1.07,1.07,0,0,0-.21.66A1.55,1.55,0,0,0,912.66,90.1Zm0.5,1.22v2.6a0.93,0.93,0,0,0,.67-0.36,1.25,1.25,0,0,0,.25-0.8,1.28,1.28,0,0,0-.24-0.76A3.35,3.35,0,0,0,913.16,91.32Z" transform="translate(0 -77.81)"/><path class="cls-1" d="M917.24,92.9l0.66-.06Q918,94,918.82,94a0.89,0.89,0,0,0,.78-0.49,2.69,2.69,0,0,0,.3-1.4q0-1.77-1-1.77a0.9,0.9,0,0,0-.56.2,1,1,0,0,0-.35.5l-0.56-.1,0.24-3.66h2.54l-0.06.6h-1.9l-0.14,2.2a1.43,1.43,0,0,1,1-.34,1.31,1.31,0,0,1,1.11.61,3,3,0,0,1,.43,1.74,3,3,0,0,1-.5,1.85,1.52,1.52,0,0,1-1.26.66,1.44,1.44,0,0,1-1.16-.49A2.05,2.05,0,0,1,917.24,92.9Z" transform="translate(0 -77.81)"/><path class="cls-1" d="M926.16,88.09a9.6,9.6,0,0,1,0,5.65,1.42,1.42,0,0,1-2.63,0,9.6,9.6,0,0,1,0-5.65A1.42,1.42,0,0,1,926.16,88.09Zm-0.54,5.23a11.74,11.74,0,0,0,0-4.82,0.77,0.77,0,0,0-1.54,0,11.74,11.74,0,0,0,0,4.82A0.77,0.77,0,0,0,925.61,93.32Z" transform="translate(0 -77.81)"/><path class="cls-1" d="M934.66,95.32l-0.48.3a8,8,0,0,1-.94-2,8.35,8.35,0,0,1,0-4.4,8,8,0,0,1,.94-2l0.48,0.3A7.74,7.74,0,0,0,934.66,95.32Z" transform="translate(0 -77.81)"/><path class="cls-1" d="M938.24,87.3h1.08l1.59,7.22h-0.78l-0.43-2.14h-1.84l-0.43,2.14h-0.78Zm0.53,0.54L938,91.72h1.62l-0.8-3.88h0Z" transform="translate(0 -77.81)"/><path class="cls-1" d="M943.16,87.3h0.78v5.3Q943.94,94,945,94t1.06-1.36V87.3h0.78v5.32a2.19,2.19,0,0,1-.46,1.46,2,2,0,0,1-2.77,0,2.19,2.19,0,0,1-.46-1.46V87.3Z" transform="translate(0 -77.81)"/><path class="cls-1" d="M953,89.16h-0.72a1.14,1.14,0,0,0-1.11-1.3,1,1,0,0,0-.72.27,0.91,0.91,0,0,0-.27.68,1.24,1.24,0,0,0,.3.81,3.13,3.13,0,0,0,.73.64q0.42,0.28.85,0.58a2.74,2.74,0,0,1,.73.8,2.15,2.15,0,0,1,.3,1.13,1.68,1.68,0,0,1-1.85,1.84,1.66,1.66,0,0,1-1.32-.56,2.26,2.26,0,0,1-.51-1.48h0.72a1.64,1.64,0,0,0,.32,1,1.06,1.06,0,0,0,.87.37,1,1,0,0,0,.79-0.31,1.25,1.25,0,0,0,.29-0.88,1.31,1.31,0,0,0-.21-0.71,2.06,2.06,0,0,0-.54-0.56l-0.7-.51-0.7-.54a2.12,2.12,0,0,1-.54-0.67,1.89,1.89,0,0,1-.21-0.89,1.61,1.61,0,0,1,.48-1.22,1.75,1.75,0,0,1,1.26-.46,1.65,1.65,0,0,1,1.26.51A2.19,2.19,0,0,1,953,89.16Z" transform="translate(0 -77.81)"/><path class="cls-1" d="M962.78,91l0.7,0a6.4,6.4,0,0,1-.5,2.14,4.64,4.64,0,0,0,.88.78l-0.42.54a3,3,0,0,1-.9-0.68,1.93,1.93,0,0,1-1.53.78,1.83,1.83,0,0,1-1.35-.5,1.81,1.81,0,0,1-.5-1.35,2,2,0,0,1,.07-0.5,3.45,3.45,0,0,1,.14-0.42,2,2,0,0,1,.23-0.39l0.24-.32,0.28-.31,0.24-.25a4.42,4.42,0,0,1-.51-1.85,1.64,1.64,0,0,1,.36-1.13,1.16,1.16,0,0,1,.91-0.39,1.32,1.32,0,0,1,1,.37,1.21,1.21,0,0,1,.38.89,2,2,0,0,1-.21.9,2.72,2.72,0,0,1-.41.65q-0.21.22-.65,0.64a9.19,9.19,0,0,0,1.29,2A6.13,6.13,0,0,0,962.78,91Zm-2.9,1.7a1.27,1.27,0,0,0,.31.91,1.17,1.17,0,0,0,.89.33,1,1,0,0,0,.56-0.17,1.55,1.55,0,0,0,.45-0.43,12,12,0,0,1-1.46-2.19,3.27,3.27,0,0,0-.54.74A1.71,1.71,0,0,0,959.88,92.72Zm0.68-4c0,0.07,0,.15,0,0.22s0,0.15,0,.23l0,0.19a1.58,1.58,0,0,0,.06.21l0.06,0.17,0.07,0.2,0.06,0.17a4.61,4.61,0,0,0,.61-0.83,1.7,1.7,0,0,0,.2-0.82,0.71,0.71,0,0,0-.16-0.46,0.46,0.46,0,0,0-.36-0.2Q960.56,87.74,960.56,88.67Z" transform="translate(0 -77.81)"/><path class="cls-1" d="M970,87.3h1.22l1.86,5.32h0V87.3h0.78v7.22H973l-2.24-6.28h0v6.28H970V87.3Z" transform="translate(0 -77.81)"/><path class="cls-1" d="M976.62,87.3h3.32v0.54l-2.68,6h2.68v0.66h-3.56V94l2.6-6h-2.36V87.3Z" transform="translate(0 -77.81)"/><path class="cls-1" d="M982.28,87.5l0.48-.3a8,8,0,0,1,.95,2,8.35,8.35,0,0,1,0,4.4,8,8,0,0,1-.95,2l-0.48-.3A7.74,7.74,0,0,0,982.28,87.5Z" transform="translate(0 -77.81)"/><path class="cls-1" d="M844.69,99.2q2,0,2,3.71t-2,3.71q-2,0-2-3.71T844.69,99.2Zm1.08,5.58a10.09,10.09,0,0,0,0-3.74,1.93,1.93,0,0,0-.44-0.94,1,1,0,0,0-1.29,0,1.92,1.92,0,0,0-.44.94,10.09,10.09,0,0,0,0,3.74,1.92,1.92,0,0,0,.44.94,1,1,0,0,0,1.29,0A1.93,1.93,0,0,0,845.78,104.78Z" transform="translate(0 -77.81)"/><path class="cls-1" d="M849.35,106.52V99.3h1.74a2.05,2.05,0,0,1,1.44.5,1.76,1.76,0,0,1,.54,1.37,1.69,1.69,0,0,1-1.16,1.77l1.22,3.58h-0.82l-1.16-3.42-1,0v3.38h-0.78Zm0.78-6.56v2.5h0.68a1.67,1.67,0,0,0,1.14-.31,1.49,1.49,0,0,0,0-1.88,1.68,1.68,0,0,0-1.14-.31h-0.68Z" transform="translate(0 -77.81)"/><path class="cls-1" d="M859.29,104.54H860a1.26,1.26,0,0,0,.82,1.38V103q-0.35-.23-0.55-0.39a5,5,0,0,1-.45-0.42,1.64,1.64,0,0,1-.37-0.54,1.73,1.73,0,0,1-.12-0.64,1.67,1.67,0,0,1,.41-1.15,1.64,1.64,0,0,1,1.07-.54v-1h0.5v1a1.59,1.59,0,0,1,1.11.62,2.2,2.2,0,0,1,.41,1.3h-0.72a2,2,0,0,0-.22-0.83,1,1,0,0,0-.58-0.49v2.55l0.6,0.42a5.07,5.07,0,0,1,.49.45,1.83,1.83,0,0,1,.42.64,2.15,2.15,0,0,1,.13.76,1.74,1.74,0,0,1-.45,1.24,1.79,1.79,0,0,1-1.19.55v1.16h-0.5v-1.16a1.66,1.66,0,0,1-1.14-.64A2.17,2.17,0,0,1,859.29,104.54Zm1.54-2.44V99.9a0.89,0.89,0,0,0-.55.35,1.06,1.06,0,0,0-.21.66A1.55,1.55,0,0,0,860.83,102.1Zm0.5,1.22v2.6a0.93,0.93,0,0,0,.67-0.36,1.26,1.26,0,0,0,.25-0.8A1.28,1.28,0,0,0,862,104,3.37,3.37,0,0,0,861.33,103.32Z" transform="translate(0 -77.81)"/><path class="cls-1" d="M868.85,104.7a2,2,0,0,1-.48,1.36,1.79,1.79,0,0,1-2.59,0,2,2,0,0,1-.48-1.36,2.41,2.41,0,0,1,1.16-2,3.09,3.09,0,0,1-.75-0.83,2,2,0,0,1-.25-1,1.55,1.55,0,0,1,.47-1.16,1.67,1.67,0,0,1,2.3,0,1.55,1.55,0,0,1,.47,1.16,2,2,0,0,1-.24,1,3.11,3.11,0,0,1-.76.83A2.41,2.41,0,0,1,868.85,104.7Zm-0.72,0a1.51,1.51,0,0,0-.28-0.91,0.79,0.79,0,0,0-1.57,0,1.51,1.51,0,0,0-.28.91,1.53,1.53,0,0,0,.28.9,1,1,0,0,0,1.57,0A1.53,1.53,0,0,0,868.13,104.73Zm-0.16-4a1,1,0,0,0-.23-0.66,0.94,0.94,0,0,0-1.34,0,1,1,0,0,0-.23.66A1.05,1.05,0,1,0,868,100.74Z" transform="translate(0 -77.81)"/><path class="cls-1" d="M874.33,100.09a9.6,9.6,0,0,1,0,5.65,1.42,1.42,0,0,1-2.63,0,9.6,9.6,0,0,1,0-5.65A1.42,1.42,0,0,1,874.33,100.09Zm-0.54,5.23a11.74,11.74,0,0,0,0-4.82,0.77,0.77,0,0,0-1.54,0,11.74,11.74,0,0,0,0,4.82A0.77,0.77,0,0,0,873.78,105.32Z" transform="translate(0 -77.81)"/><path class="cls-1" d="M882.83,107.32l-0.48.3a8,8,0,0,1-.95-2,8.35,8.35,0,0,1,0-4.4,8,8,0,0,1,.95-2l0.48,0.3A7.74,7.74,0,0,0,882.83,107.32Z" transform="translate(0 -77.81)"/><path class="cls-1" d="M885.39,106.52V99.3h1.74a2.05,2.05,0,0,1,1.44.5,1.76,1.76,0,0,1,.54,1.37,1.69,1.69,0,0,1-1.16,1.77l1.22,3.58h-0.82l-1.16-3.42-1,0v3.38h-0.78Zm0.78-6.56v2.5h0.68a1.67,1.67,0,0,0,1.14-.31,1.49,1.49,0,0,0,0-1.88,1.68,1.68,0,0,0-1.14-.31h-0.68Z" transform="translate(0 -77.81)"/><path class="cls-1" d="M891.89,99.3h3.3V100h-2.52v2.46h1.86v0.66h-1.86v2.78h2.64v0.66h-3.42V99.3Z" transform="translate(0 -77.81)"/><path class="cls-1" d="M901.13,101.16h-0.72a1.14,1.14,0,0,0-1.11-1.3,1,1,0,0,0-.72.27,0.92,0.92,0,0,0-.27.68,1.24,1.24,0,0,0,.3.81,3.14,3.14,0,0,0,.72.64q0.42,0.28.85,0.58a2.74,2.74,0,0,1,.72.8,2.15,2.15,0,0,1,.3,1.13,1.68,1.68,0,0,1-1.85,1.84,1.66,1.66,0,0,1-1.33-.56,2.25,2.25,0,0,1-.5-1.48h0.72a1.64,1.64,0,0,0,.32,1,1.06,1.06,0,0,0,.87.37,1,1,0,0,0,.79-0.31,1.25,1.25,0,0,0,.28-0.88,1.3,1.3,0,0,0-.21-0.71,2,2,0,0,0-.54-0.56l-0.7-.51-0.7-.54a2.1,2.1,0,0,1-.54-0.67,1.88,1.88,0,0,1-.21-0.89,1.61,1.61,0,0,1,.48-1.22,1.75,1.75,0,0,1,1.26-.46,1.65,1.65,0,0,1,1.26.51A2.19,2.19,0,0,1,901.13,101.16Z" transform="translate(0 -77.81)"/><path class="cls-1" d="M903.18,99.3h3.74V100h-1.48v6.56h-0.78V100h-1.48V99.3Z" transform="translate(0 -77.81)"/><path class="cls-1" d="M914.72,99.2q2,0,2,3.71t-2,3.71q-2,0-2-3.71T914.72,99.2Zm1.08,5.58a10.09,10.09,0,0,0,0-3.74,1.92,1.92,0,0,0-.44-0.94,1,1,0,0,0-1.29,0,1.93,1.93,0,0,0-.44.94,10.09,10.09,0,0,0,0,3.74,1.93,1.93,0,0,0,.44.94,1,1,0,0,0,1.29,0A1.92,1.92,0,0,0,915.8,104.78Z" transform="translate(0 -77.81)"/><path class="cls-1" d="M919.38,106.52V99.3h3.1V100h-2.32v2.46h1.74v0.66h-1.74v3.44h-0.78Z" transform="translate(0 -77.81)"/><path class="cls-1" d="M927.9,99.3h3.74V100h-1.48v6.56h-0.78V100H927.9V99.3Z" transform="translate(0 -77.81)"/><path class="cls-1" d="M933.88,99.3h0.78v3.12h2.12V99.3h0.78v7.22h-0.78v-3.44h-2.12v3.44h-0.78V99.3Z" transform="translate(0 -77.81)"/><path class="cls-1" d="M940.38,99.3h3.3V100h-2.52v2.46H943v0.66h-1.86v2.78h2.64v0.66h-3.42V99.3Z" transform="translate(0 -77.81)"/><path class="cls-1" d="M949.44,99.3h0.72l0.86,5.64h0l1.08-5.64h0.64l1.12,5.64h0l0.8-5.64h0.72l-1.16,7.22H953.6l-1.14-5.67h0l-1.14,5.67h-0.66Z" transform="translate(0 -77.81)"/><path class="cls-1" d="M959.49,99.2q2,0,2,3.71t-2,3.71q-2,0-2-3.71T959.49,99.2Zm1.08,5.58a10.09,10.09,0,0,0,0-3.74,1.92,1.92,0,0,0-.44-0.94,1,1,0,0,0-1.29,0,1.93,1.93,0,0,0-.44.94,10.09,10.09,0,0,0,0,3.74,1.93,1.93,0,0,0,.44.94,1,1,0,0,0,1.29,0A1.92,1.92,0,0,0,960.57,104.78Z" transform="translate(0 -77.81)"/><path class="cls-1" d="M964.15,106.52V99.3h1.74a2.05,2.05,0,0,1,1.43.5,1.76,1.76,0,0,1,.54,1.37,1.69,1.69,0,0,1-1.16,1.77l1.22,3.58h-0.82l-1.16-3.42-1,0v3.38h-0.78Zm0.78-6.56v2.5h0.68a1.68,1.68,0,0,0,1.15-.31,1.49,1.49,0,0,0,0-1.88,1.68,1.68,0,0,0-1.15-.31h-0.68Z" transform="translate(0 -77.81)"/><path class="cls-1" d="M970.65,99.3h0.78v6.56h2.34v0.66h-3.12V99.3Z" transform="translate(0 -77.81)"/><path class="cls-1" d="M976,106.52V99.3h1.34a2.67,2.67,0,0,1,1,.18,1.91,1.91,0,0,1,.76.58,2.77,2.77,0,0,1,.49,1.12,9.15,9.15,0,0,1,0,3.46,2.77,2.77,0,0,1-.49,1.12,1.91,1.91,0,0,1-.76.58,2.67,2.67,0,0,1-1,.18H976Zm0.78-6.56v5.9h0.42a2.25,2.25,0,0,0,.77-0.11,1.27,1.27,0,0,0,.55-0.43,2.15,2.15,0,0,0,.36-0.9,9.82,9.82,0,0,0,0-3,2.15,2.15,0,0,0-.36-0.91,1.26,1.26,0,0,0-.55-0.43,2.22,2.22,0,0,0-.77-0.12h-0.42Z" transform="translate(0 -77.81)"/><path class="cls-1" d="M982.28,99.5l0.48-.3a8,8,0,0,1,.95,2,8.35,8.35,0,0,1,0,4.4,8,8,0,0,1-.95,2l-0.48-.3A7.74,7.74,0,0,0,982.28,99.5Z" transform="translate(0 -77.81)"/></svg>