<svg id="Layer_1" data-name="Layer 1" xmlns="http://www.w3.org/2000/svg" viewBox="0 0 994 39.38"><defs><style>.cls-1{fill:#fff;}</style></defs><title>freeshipping</title><rect width="994" height="39.38"/><path class="cls-1" d="M791.26,10.68l0.3,0.89-1.51.17a11.19,11.19,0,0,0,1.11,1.07l-0.79.55q-0.1-.28-0.61-1.4-0.51,1.12-.61,1.4l-0.79-.55a11.19,11.19,0,0,0,1.11-1.07L788,11.57l0.3-.89a13.32,13.32,0,0,0,1.27.67,9.72,9.72,0,0,0-.24-1.44h0.94a9.58,9.58,0,0,0-.24,1.44A13.42,13.42,0,0,0,791.26,10.68Z" transform="translate(0 0.19)"/><path class="cls-1" d="M795.42,14.51l0.81-4.6h1l0.84,4.6h0l0.69-4.6H800l-1.27,7.22h-1l-0.9-4.77h0l-0.84,4.77h-1l-1.37-7.22h1.16l0.76,4.6h0Z" transform="translate(0 0.19)"/><path class="cls-1" d="M803.49,17.13h-1.24V9.91h1.24v2.94h1.32V9.91H806v7.22h-1.24v-3.2h-1.32v3.2Z" transform="translate(0 0.19)"/><path class="cls-1" d="M812.21,17.13h-3.46V9.91h3.32V11H810v1.86h1.6v1.08H810V16h2.22v1.08Z" transform="translate(0 0.19)"/><path class="cls-1" d="M815.81,17.13h-1.12V9.91h1.15L817.35,14h0V9.91h1.12v7.22h-1.08l-1.58-4.51h0v4.51Z" transform="translate(0 0.19)"/><path class="cls-1" d="M827.15,14.13v3h-1.24v-3l-1.5-4.22h1.26l0.87,2.75h0l0.83-2.75h1.26Z" transform="translate(0 0.19)"/><path class="cls-1" d="M830.85,15.38V11.66a1.87,1.87,0,0,1,.48-1.33,2.19,2.19,0,0,1,2.83,0,1.87,1.87,0,0,1,.49,1.33v3.72a1.87,1.87,0,0,1-.49,1.33,2.19,2.19,0,0,1-2.83,0A1.87,1.87,0,0,1,830.85,15.38Zm1.24-3.69v3.66a1,1,0,0,0,.15.61,0.78,0.78,0,0,0,1,0,1,1,0,0,0,.15-0.61V11.69a1,1,0,0,0-.15-0.61,0.78,0.78,0,0,0-1,0A1,1,0,0,0,832.09,11.69Z" transform="translate(0 0.19)"/><path class="cls-1" d="M837.35,15.31V9.91h1.24v5.45a0.67,0.67,0,1,0,1.32,0V9.91h1.24v5.4A1.9,1.9,0,1,1,837.35,15.31Z" transform="translate(0 0.19)"/><path class="cls-1" d="M851,11.56l-1.18.13a0.94,0.94,0,0,0-.22-0.62,0.61,0.61,0,0,0-.44-0.19,0.59,0.59,0,0,0-.62.71,1.09,1.09,0,0,0,.26.66,4.05,4.05,0,0,0,.63.64q0.37,0.31.74,0.65a3.13,3.13,0,0,1,.63.81,2.08,2.08,0,0,1,.26,1,1.75,1.75,0,0,1-.54,1.37,2,2,0,0,1-1.42.48,1.66,1.66,0,0,1-1.33-.58,2.28,2.28,0,0,1-.54-1.42l1.18-.17a1.63,1.63,0,0,0,.24.81,0.59,0.59,0,0,0,.5.28,0.77,0.77,0,0,0,.53-0.17,0.62,0.62,0,0,0,.19-0.49,1.24,1.24,0,0,0-.26-0.74,3.57,3.57,0,0,0-.63-0.66l-0.74-.62a2.9,2.9,0,0,1-.63-0.81,2.16,2.16,0,0,1-.26-1,1.73,1.73,0,0,1,.5-1.33,2,2,0,0,1,1.42-.47,1.54,1.54,0,0,1,1.18.48A2.17,2.17,0,0,1,851,11.56Z" transform="translate(0 0.19)"/><path class="cls-1" d="M854.75,17.13h-1.24V9.91h1.78a2.46,2.46,0,0,1,1.71.5,2.14,2.14,0,0,1,.54,1.64,2.14,2.14,0,0,1-.54,1.63,2.46,2.46,0,0,1-1.71.5h-0.54v3Zm0-6.2v2.22h0.48a1.14,1.14,0,0,0,.83-0.23,1.28,1.28,0,0,0,.23-0.87,1.28,1.28,0,0,0-.23-0.87,1.14,1.14,0,0,0-.83-0.24h-0.48Z" transform="translate(0 0.19)"/><path class="cls-1" d="M863.47,17.13H860V9.91h3.32V11h-2.08v1.86h1.6v1.08h-1.6V16h2.22v1.08Z" transform="translate(0 0.19)"/><path class="cls-1" d="M867.07,17.13h-1.12V9.91h1.15L868.61,14h0V9.91h1.12v7.22h-1.08l-1.58-4.51h0v4.51Z" transform="translate(0 0.19)"/><path class="cls-1" d="M872.45,17.13V9.91h1.84q2,0,2,2.18v2.86q0,2.18-2,2.18h-1.84Zm1.24-6.2v5.18h0.43a0.9,0.9,0,0,0,.69-0.22,1.2,1.2,0,0,0,.2-0.79V11.94a1.2,1.2,0,0,0-.2-0.79,0.9,0.9,0,0,0-.69-0.22h-0.43Z" transform="translate(0 0.19)"/><path class="cls-1" d="M882.67,15.38V11.66a1.87,1.87,0,0,1,.48-1.33,2.19,2.19,0,0,1,2.83,0,1.87,1.87,0,0,1,.49,1.33v3.72a1.87,1.87,0,0,1-.49,1.33,2.19,2.19,0,0,1-2.83,0A1.87,1.87,0,0,1,882.67,15.38Zm1.24-3.69v3.66a1,1,0,0,0,.15.61,0.78,0.78,0,0,0,1,0,1,1,0,0,0,.15-0.61V11.69a1,1,0,0,0-.15-0.61,0.78,0.78,0,0,0-1,0A1,1,0,0,0,883.91,11.69Z" transform="translate(0 0.19)"/><path class="cls-1" d="M890.8,14.92l0.9-5h1.22l-1.51,7.22h-1.24l-1.51-7.22h1.22l0.9,5h0Z" transform="translate(0 0.19)"/><path class="cls-1" d="M898.57,17.13h-3.46V9.91h3.32V11h-2.08v1.86h1.6v1.08h-1.6V16h2.22v1.08Z" transform="translate(0 0.19)"/><path class="cls-1" d="M902.29,14.17v3H901V9.91h1.74a2.2,2.2,0,0,1,1.58.5,2.2,2.2,0,0,1,.52,1.63,1.78,1.78,0,0,1-.87,1.82l1,3.27h-1.26l-0.88-3A5.4,5.4,0,0,1,902.29,14.17Zm0-3.24v2.22h0.44a0.9,0.9,0,0,0,.71-0.24,1.37,1.37,0,0,0,.21-0.87,1.37,1.37,0,0,0-.21-0.87,0.9,0.9,0,0,0-.71-0.24h-0.44Z" transform="translate(0 0.19)"/><path class="cls-1" d="M912.59,9.91V9h0.6V9.91a2.15,2.15,0,0,1,1.39.91l-0.76.65a1.09,1.09,0,0,0-.63-0.58V13a5.37,5.37,0,0,1,1.21,1,1.85,1.85,0,0,1,.42,1.25,2.07,2.07,0,0,1-.43,1.32,1.63,1.63,0,0,1-1.19.62v1.16h-0.6V17.13A2.2,2.2,0,0,1,911,16l0.83-.63a1.2,1.2,0,0,0,.79.8V13.82a4.47,4.47,0,0,1-1.1-.91,1.72,1.72,0,0,1-.42-1.15,2,2,0,0,1,.41-1.24A1.61,1.61,0,0,1,912.59,9.91Zm0,2.72V10.89a0.65,0.65,0,0,0-.36.28,0.82,0.82,0,0,0-.14.46A1.33,1.33,0,0,0,912.59,12.63Zm0.6,1.57v2a0.89,0.89,0,0,0,.56-0.93,1.06,1.06,0,0,0-.13-0.56A2.29,2.29,0,0,0,913.19,14.2Z" transform="translate(0 0.19)"/><path class="cls-1" d="M917.11,15h1.12v0.58a0.67,0.67,0,0,0,.15.46,0.51,0.51,0,0,0,.4.17q0.61,0,.61-0.88V13.73a0.73,0.73,0,0,0-.14-0.5,0.48,0.48,0,0,0-.37-0.17,0.7,0.7,0,0,0-.67.55h-1q0.09-2.52.09-3.71h3l0,1h-1.95l-0.07,1.56,0,0a1.13,1.13,0,0,1,.43-0.34,1.46,1.46,0,0,1,.52-0.08q1.32,0,1.32,1.9v1a2.9,2.9,0,0,1-.4,1.7,1.48,1.48,0,0,1-1.29.54,2,2,0,0,1-1.29-.4,1.51,1.51,0,0,1-.48-1.25V15Z" transform="translate(0 0.19)"/><path class="cls-1" d="M923,15.25V11.79a2.24,2.24,0,0,1,.42-1.51,2.13,2.13,0,0,1,2.68,0,2.24,2.24,0,0,1,.42,1.51v3.46a2.24,2.24,0,0,1-.42,1.5,2.13,2.13,0,0,1-2.68,0A2.24,2.24,0,0,1,923,15.25Zm2.34,0.31V11.48a0.59,0.59,0,1,0-1.16,0v4.08A0.59,0.59,0,1,0,925.35,15.56Z" transform="translate(0 0.19)"/><path class="cls-1" d="M933.71,9.81h1a7.38,7.38,0,0,0-1.18,4.09A7.38,7.38,0,0,0,934.67,18h-1a7.3,7.3,0,0,1-.87-1.94,7.63,7.63,0,0,1,0-4.31A7.29,7.29,0,0,1,933.71,9.81Z" transform="translate(0 0.19)"/><path class="cls-1" d="M938,15.53l-0.22,1.6h-1.2l1.33-7.22h1.54l1.33,7.22h-1.2l-0.22-1.6H938Zm0.67-4.18-0.49,3.1h1l-0.49-3.1h0Z" transform="translate(0 0.19)"/><path class="cls-1" d="M943,15.31V9.91h1.24v5.45a0.67,0.67,0,1,0,1.32,0V9.91h1.24v5.4A1.9,1.9,0,1,1,943,15.31Z" transform="translate(0 0.19)"/><path class="cls-1" d="M953,11.56l-1.18.13a0.93,0.93,0,0,0-.22-0.62,0.61,0.61,0,0,0-.44-0.19,0.59,0.59,0,0,0-.62.71,1.08,1.08,0,0,0,.26.66,4,4,0,0,0,.63.64q0.37,0.31.74,0.65a3.17,3.17,0,0,1,.63.81,2.09,2.09,0,0,1,.26,1,1.75,1.75,0,0,1-.54,1.37,2,2,0,0,1-1.42.48,1.66,1.66,0,0,1-1.33-.58,2.28,2.28,0,0,1-.54-1.42l1.18-.17a1.63,1.63,0,0,0,.23.81,0.59,0.59,0,0,0,.51.28,0.77,0.77,0,0,0,.52-0.17,0.62,0.62,0,0,0,.2-0.49,1.24,1.24,0,0,0-.26-0.74,3.54,3.54,0,0,0-.63-0.66l-0.74-.62a2.86,2.86,0,0,1-.63-0.81,2.16,2.16,0,0,1-.26-1,1.74,1.74,0,0,1,.5-1.33,2,2,0,0,1,1.42-.47,1.54,1.54,0,0,1,1.19.48A2.17,2.17,0,0,1,953,11.56Z" transform="translate(0 0.19)"/><path class="cls-1" d="M962.63,13.63l1,0.27a2.72,2.72,0,0,1-.08.33l-0.09.3c0,0.08-.07.19-0.12,0.33l-0.12.29-0.13.33-0.13.3a1.33,1.33,0,0,0,.69.34v1.1a2.08,2.08,0,0,1-1.4-.55,2,2,0,0,1-1.42.55,1.71,1.71,0,0,1-1.25-.47,1.64,1.64,0,0,1-.48-1.22,3.05,3.05,0,0,1,1-2,5.31,5.31,0,0,1-.57-2,1.82,1.82,0,0,1,.4-1.23,1.46,1.46,0,0,1,1.17-.47,1.43,1.43,0,0,1,1.08.41,1.5,1.5,0,0,1,.4,1.09,1.76,1.76,0,0,1,0,.26,2.28,2.28,0,0,1,0,.25,1.52,1.52,0,0,1-.09.25l-0.11.23a1.26,1.26,0,0,1-.14.22l-0.15.2-0.17.21-0.17.2-0.18.19-0.17.19a7.79,7.79,0,0,0,.9,1.47A10,10,0,0,0,962.63,13.63Zm-2.38,1.75a0.78,0.78,0,0,0,.21.54,0.68,0.68,0,0,0,.52.23,0.86,0.86,0,0,0,.57-0.21,7.73,7.73,0,0,1-1-1.45A1.64,1.64,0,0,0,960.25,15.38Zm0.26-4.14a3.89,3.89,0,0,0,.34,1.39,2.39,2.39,0,0,0,.6-1.32q0-.78-0.45-0.78T960.51,11.24Z" transform="translate(0 0.19)"/><path class="cls-1" d="M971.09,17.13H970V9.91h1.15L972.63,14h0V9.91h1.12v7.22h-1.08l-1.58-4.51h0v4.51Z" transform="translate(0 0.19)"/><path class="cls-1" d="M978.62,11h-2V9.91h3.28v1.18l-2.28,5h2.28v1.08h-3.56V15.95Z" transform="translate(0 0.19)"/><path class="cls-1" d="M982.13,9.81h1a7.35,7.35,0,0,1,.87,1.94,7.65,7.65,0,0,1,0,4.31,7.37,7.37,0,0,1-.87,1.94h-1a7.39,7.39,0,0,0,1.18-4.09A7.39,7.39,0,0,0,982.13,9.81Z" transform="translate(0 0.19)"/><path class="cls-1" d="M841.61,27.38V23.66a1.87,1.87,0,0,1,.49-1.33,2.19,2.19,0,0,1,2.83,0,1.87,1.87,0,0,1,.48,1.33v3.72a1.87,1.87,0,0,1-.48,1.33,2.19,2.19,0,0,1-2.83,0A1.87,1.87,0,0,1,841.61,27.38Zm1.24-3.69v3.66A1,1,0,0,0,843,28a0.78,0.78,0,0,0,1,0,1,1,0,0,0,.15-0.61V23.69a1,1,0,0,0-.15-0.61,0.78,0.78,0,0,0-1,0A1,1,0,0,0,842.85,23.69Z" transform="translate(0 0.19)"/><path class="cls-1" d="M849.35,26.17v3h-1.24V21.91h1.74a2.2,2.2,0,0,1,1.58.5,2.2,2.2,0,0,1,.51,1.63,1.78,1.78,0,0,1-.87,1.82l1.05,3.27h-1.26l-0.88-3A5.38,5.38,0,0,1,849.35,26.17Zm0-3.24v2.22h0.44a0.9,0.9,0,0,0,.72-0.24,1.38,1.38,0,0,0,.21-0.87,1.38,1.38,0,0,0-.21-0.87,0.9,0.9,0,0,0-.72-0.24h-0.44Z" transform="translate(0 0.19)"/><path class="cls-1" d="M859.65,21.91V21h0.6v0.88a2.15,2.15,0,0,1,1.39.91l-0.76.65a1.08,1.08,0,0,0-.63-0.58V25a5.35,5.35,0,0,1,1.21,1,1.85,1.85,0,0,1,.42,1.25,2.07,2.07,0,0,1-.43,1.32,1.63,1.63,0,0,1-1.19.62v1.16h-0.6V29.13A2.19,2.19,0,0,1,858,28l0.83-.63a1.2,1.2,0,0,0,.79.8V25.82a4.49,4.49,0,0,1-1.11-.91,1.72,1.72,0,0,1-.42-1.15,2,2,0,0,1,.41-1.24A1.61,1.61,0,0,1,859.65,21.91Zm0,2.72V22.89a0.65,0.65,0,0,0-.37.28,0.83,0.83,0,0,0-.13.46A1.33,1.33,0,0,0,859.65,24.63Zm0.6,1.57v2a0.89,0.89,0,0,0,.56-0.93,1,1,0,0,0-.14-0.56A2.29,2.29,0,0,0,860.25,26.2Z" transform="translate(0 0.19)"/><path class="cls-1" d="M864.13,27.13a3.35,3.35,0,0,1,.16-1.14,1.44,1.44,0,0,1,.59-0.71,1.66,1.66,0,0,1-.65-1.44,2.29,2.29,0,0,1,.43-1.52,1.74,1.74,0,0,1,2.45,0,2.29,2.29,0,0,1,.43,1.52,1.66,1.66,0,0,1-.65,1.44,1.44,1.44,0,0,1,.59.71,3.35,3.35,0,0,1,.16,1.14,2.4,2.4,0,0,1-.45,1.56,1.87,1.87,0,0,1-2.63,0A2.4,2.4,0,0,1,864.13,27.13Zm1.12-.08q0,1.2.64,1.2t0.64-1.2q0-1.2-.64-1.2T865.25,27Zm0.23-2.52a0.48,0.48,0,0,0,.83,0,2.34,2.34,0,0,0,0-1.51,0.48,0.48,0,0,0-.83,0A2.34,2.34,0,0,0,865.47,24.53Z" transform="translate(0 0.19)"/><path class="cls-1" d="M870.07,27.25V23.79a2.24,2.24,0,0,1,.42-1.51,2.13,2.13,0,0,1,2.68,0,2.24,2.24,0,0,1,.42,1.51v3.46a2.23,2.23,0,0,1-.42,1.5,2.13,2.13,0,0,1-2.68,0A2.23,2.23,0,0,1,870.07,27.25Zm2.34,0.31V23.48a0.59,0.59,0,1,0-1.16,0v4.08A0.59,0.59,0,1,0,872.41,27.56Z" transform="translate(0 0.19)"/><path class="cls-1" d="M880.77,21.81h1a7.68,7.68,0,0,0,0,8.18h-1a7.37,7.37,0,0,1-.87-1.94,7.65,7.65,0,0,1,0-4.31A7.35,7.35,0,0,1,880.77,21.81Z" transform="translate(0 0.19)"/><path class="cls-1" d="M885.39,26.17v3h-1.24V21.91h1.74a2.2,2.2,0,0,1,1.58.5A2.2,2.2,0,0,1,888,24a1.78,1.78,0,0,1-.87,1.82l1.05,3.27h-1.26l-0.88-3A5.38,5.38,0,0,1,885.39,26.17Zm0-3.24v2.22h0.44a0.9,0.9,0,0,0,.72-0.24,1.38,1.38,0,0,0,.21-0.87,1.38,1.38,0,0,0-.21-0.87,0.9,0.9,0,0,0-.72-0.24h-0.44Z" transform="translate(0 0.19)"/><path class="cls-1" d="M894.11,29.13h-3.46V21.91H894V23h-2.08v1.86h1.6v1.08h-1.6V28h2.22v1.08Z" transform="translate(0 0.19)"/><path class="cls-1" d="M900,23.56l-1.18.13a0.94,0.94,0,0,0-.22-0.62,0.61,0.61,0,0,0-.44-0.19,0.59,0.59,0,0,0-.62.71,1.09,1.09,0,0,0,.26.66,4.05,4.05,0,0,0,.63.64q0.37,0.31.74,0.65a3.13,3.13,0,0,1,.63.81,2.08,2.08,0,0,1,.26,1,1.75,1.75,0,0,1-.54,1.37,2,2,0,0,1-1.42.48,1.66,1.66,0,0,1-1.33-.58,2.28,2.28,0,0,1-.54-1.42l1.18-.17a1.63,1.63,0,0,0,.24.81,0.59,0.59,0,0,0,.5.28,0.77,0.77,0,0,0,.53-0.17,0.62,0.62,0,0,0,.19-0.49,1.24,1.24,0,0,0-.26-0.74,3.57,3.57,0,0,0-.63-0.66l-0.74-.62a2.9,2.9,0,0,1-.63-0.81,2.16,2.16,0,0,1-.26-1,1.73,1.73,0,0,1,.5-1.33,2,2,0,0,1,1.42-.47,1.54,1.54,0,0,1,1.18.48A2.17,2.17,0,0,1,900,23.56Z" transform="translate(0 0.19)"/><path class="cls-1" d="M903.25,29.13V23H902V21.91h3.64V23h-1.2v6.14h-1.24Z" transform="translate(0 0.19)"/><path class="cls-1" d="M911.64,27.38V23.66a1.87,1.87,0,0,1,.48-1.33,2.19,2.19,0,0,1,2.83,0,1.87,1.87,0,0,1,.49,1.33v3.72a1.87,1.87,0,0,1-.49,1.33,2.19,2.19,0,0,1-2.83,0A1.87,1.87,0,0,1,911.64,27.38Zm1.24-3.69v3.66A1,1,0,0,0,913,28a0.78,0.78,0,0,0,1,0,1,1,0,0,0,.15-0.61V23.69a1,1,0,0,0-.15-0.61,0.78,0.78,0,0,0-1,0A1,1,0,0,0,912.88,23.69Z" transform="translate(0 0.19)"/><path class="cls-1" d="M919.38,29.13h-1.24V21.91h3.46V23h-2.22v1.86H921v1.08h-1.66v3.2Z" transform="translate(0 0.19)"/><path class="cls-1" d="M928.52,29.13V23h-1.2V21.91H931V23h-1.2v6.14h-1.24Z" transform="translate(0 0.19)"/><path class="cls-1" d="M934.43,29.13h-1.24V21.91h1.24v2.94h1.32V21.91H937v7.22h-1.24v-3.2h-1.32v3.2Z" transform="translate(0 0.19)"/><path class="cls-1" d="M943.15,29.13h-3.46V21.91H943V23h-2.08v1.86h1.6v1.08h-1.6V28h2.22v1.08Z" transform="translate(0 0.19)"/><path class="cls-1" d="M950.69,26.51l0.81-4.6h1l0.84,4.6h0l0.69-4.6h1.16L954,29.13h-1L952,24.36h0l-0.84,4.77h-1l-1.37-7.22h1.16l0.76,4.6h0Z" transform="translate(0 0.19)"/><path class="cls-1" d="M957.52,27.38V23.66a1.87,1.87,0,0,1,.49-1.33,2.19,2.19,0,0,1,2.83,0,1.87,1.87,0,0,1,.48,1.33v3.72a1.87,1.87,0,0,1-.48,1.33,2.19,2.19,0,0,1-2.83,0A1.87,1.87,0,0,1,957.52,27.38Zm1.24-3.69v3.66a1,1,0,0,0,.15.61,0.78,0.78,0,0,0,1,0,1,1,0,0,0,.15-0.61V23.69a1,1,0,0,0-.15-0.61,0.78,0.78,0,0,0-1,0A1,1,0,0,0,958.76,23.69Z" transform="translate(0 0.19)"/><path class="cls-1" d="M965.26,26.17v3H964V21.91h1.74a2.2,2.2,0,0,1,1.58.5,2.2,2.2,0,0,1,.51,1.63,1.78,1.78,0,0,1-.87,1.82L968,29.13h-1.26l-0.88-3A5.38,5.38,0,0,1,965.26,26.17Zm0-3.24v2.22h0.44a0.9,0.9,0,0,0,.72-0.24,1.38,1.38,0,0,0,.21-0.87,1.38,1.38,0,0,0-.21-0.87,0.9,0.9,0,0,0-.72-0.24h-0.44Z" transform="translate(0 0.19)"/><path class="cls-1" d="M973.65,29.13h-3.19V21.91h1.24V28h2v1.08Z" transform="translate(0 0.19)"/><path class="cls-1" d="M975.91,29.13V21.91h1.84q2,0,2,2.18v2.86q0,2.18-2,2.18h-1.84Zm1.24-6.2v5.18h0.43a0.9,0.9,0,0,0,.69-0.22,1.2,1.2,0,0,0,.2-0.79V23.94a1.2,1.2,0,0,0-.2-0.79,0.9,0.9,0,0,0-.69-0.22h-0.43Z" transform="translate(0 0.19)"/><path class="cls-1" d="M982.13,21.81h1a7.35,7.35,0,0,1,.87,1.94,7.65,7.65,0,0,1,0,4.31,7.37,7.37,0,0,1-.87,1.94h-1A7.68,7.68,0,0,0,982.13,21.81Z" transform="translate(0 0.19)"/><path class="cls-1" d="M22.58,23.66H20.84V13.55h4.84v1.51H22.58v2.6H24.9v1.51H22.58v4.48Z" transform="translate(0 0.19)"/><path class="cls-1" d="M33,19.51v4.14H31.26V13.55h2.44a3.08,3.08,0,0,1,2.22.7,3.08,3.08,0,0,1,.72,2.28q0,2-1.22,2.55l1.47,4.58H35.12l-1.23-4.19A7.6,7.6,0,0,1,33,19.51ZM33,15v3.11h0.62a1.26,1.26,0,0,0,1-.34,1.92,1.92,0,0,0,.29-1.22,1.92,1.92,0,0,0-.29-1.22,1.26,1.26,0,0,0-1-.34H33Z" transform="translate(0 0.19)"/><path class="cls-1" d="M47.3,23.66H42.46V13.55H47.1v1.51H44.19v2.6h2.24v1.51H44.19v3H47.3v1.51Z" transform="translate(0 0.19)"/><path class="cls-1" d="M57.72,23.66H52.87V13.55h4.65v1.51H54.61v2.6h2.24v1.51H54.61v3h3.11v1.51Z" transform="translate(0 0.19)"/><path class="cls-1" d="M75.41,15.86L73.76,16a1.3,1.3,0,0,0-.31-0.86,0.86,0.86,0,0,0-.62-0.26,0.83,0.83,0,0,0-.87,1,1.52,1.52,0,0,0,.36.93,5.66,5.66,0,0,0,.88.9q0.52,0.43,1,.9a4.42,4.42,0,0,1,.88,1.14,2.91,2.91,0,0,1,.36,1.42,2.45,2.45,0,0,1-.75,1.91,2.86,2.86,0,0,1-2,.68A2.32,2.32,0,0,1,70.9,23a3.19,3.19,0,0,1-.75-2l1.65-.24a2.28,2.28,0,0,0,.33,1.13,0.83,0.83,0,0,0,.71.39A1.08,1.08,0,0,0,73.57,22a0.86,0.86,0,0,0,.27-0.69,1.74,1.74,0,0,0-.36-1,5,5,0,0,0-.88-0.92q-0.52-.42-1-0.87a4,4,0,0,1-.88-1.13,3,3,0,0,1-.36-1.47,2.43,2.43,0,0,1,.7-1.86,2.79,2.79,0,0,1,2-.66,2.16,2.16,0,0,1,1.66.67A3,3,0,0,1,75.41,15.86Z" transform="translate(0 0.19)"/><path class="cls-1" d="M82.75,23.66H81V13.55h1.74v4.12h1.85V13.55h1.74V23.66H84.59V19.18H82.75v4.48Z" transform="translate(0 0.19)"/><path class="cls-1" d="M94.19,23.66H92.45V13.55h1.74V23.66Z" transform="translate(0 0.19)"/><path class="cls-1" d="M102,23.66H100.3V13.55h2.49a3.44,3.44,0,0,1,2.39.69,3,3,0,0,1,.75,2.29,3,3,0,0,1-.75,2.29,3.44,3.44,0,0,1-2.39.69H102v4.14ZM102,15v3.11h0.67a1.61,1.61,0,0,0,1.17-.33,1.79,1.79,0,0,0,.31-1.23,1.79,1.79,0,0,0-.31-1.23,1.61,1.61,0,0,0-1.17-.33H102Z" transform="translate(0 0.19)"/><path class="cls-1" d="M113.24,23.66H111.5V13.55H114a3.44,3.44,0,0,1,2.39.69,3,3,0,0,1,.75,2.29,3,3,0,0,1-.75,2.29,3.44,3.44,0,0,1-2.39.69h-0.76v4.14Zm0-8.68v3.11h0.67a1.61,1.61,0,0,0,1.17-.33,1.79,1.79,0,0,0,.31-1.23,1.79,1.79,0,0,0-.31-1.23,1.61,1.61,0,0,0-1.17-.33h-0.67Z" transform="translate(0 0.19)"/><path class="cls-1" d="M124.68,23.66h-1.74V13.55h1.74V23.66Z" transform="translate(0 0.19)"/><path class="cls-1" d="M132.36,23.66h-1.57V13.55h1.61l2.11,5.78h0V13.55h1.57V23.66H134.6l-2.21-6.31h0v6.31Z" transform="translate(0 0.19)"/><path class="cls-1" d="M144.39,19.91V18.53h2.84v5.12h-0.84l-0.32-.76a2.79,2.79,0,0,1-.78.69,2,2,0,0,1-1,.2,2.18,2.18,0,0,1-1.68-.7,2.68,2.68,0,0,1-.64-1.89V16a2.67,2.67,0,0,1,.66-1.86,2.79,2.79,0,0,1,3.81.06,2.93,2.93,0,0,1,.68,2v0.64h-1.65a3.34,3.34,0,0,0-.23-1.5,0.81,0.81,0,0,0-.76-0.41q-0.77,0-.77,1.11v5.19q0,1.06.81,1.06a0.82,0.82,0,0,0,.73-0.32,2,2,0,0,0,.22-1.08v-1h-1.11Z" transform="translate(0 0.19)"/><path class="cls-1" d="M157.56,14.63L158,15.87l-2.11.24a15.68,15.68,0,0,0,1.55,1.5l-1.11.77q-0.14-.39-0.85-2-0.71,1.57-.85,2l-1.11-.77a15.73,15.73,0,0,0,1.55-1.5l-2.11-.24,0.42-1.25a18.84,18.84,0,0,0,1.78.94,13.41,13.41,0,0,0-.34-2h1.32a13.23,13.23,0,0,0-.34,2A18.89,18.89,0,0,0,157.56,14.63Z" transform="translate(0 0.19)"/><path class="cls-1" d="M175.73,18.76l1.43,0.38a4,4,0,0,1-.12.47l-0.13.42q-0.06.18-.17,0.46l-0.16.41-0.19.46-0.18.42a1.86,1.86,0,0,0,1,.48V23.8a2.91,2.91,0,0,1-2-.77,2.78,2.78,0,0,1-2,.77,2.39,2.39,0,0,1-1.76-.66,2.3,2.3,0,0,1-.67-1.71,4.27,4.27,0,0,1,1.33-2.86,7.43,7.43,0,0,1-.8-2.79,2.54,2.54,0,0,1,.57-1.72,2,2,0,0,1,1.63-.66A2,2,0,0,1,175,14a2.11,2.11,0,0,1,.55,1.53,2.48,2.48,0,0,1,0,.37,3,3,0,0,1-.07.34,2,2,0,0,1-.13.34l-0.15.31a1.81,1.81,0,0,1-.2.31l-0.21.28-0.24.29-0.23.27-0.25.27-0.23.26a10.9,10.9,0,0,0,1.26,2.06A13.94,13.94,0,0,0,175.73,18.76Zm-3.33,2.45a1.09,1.09,0,0,0,.29.76,1,1,0,0,0,.74.31,1.21,1.21,0,0,0,.8-0.29,10.79,10.79,0,0,1-1.39-2A2.29,2.29,0,0,0,172.4,21.21Zm0.36-5.8a5.44,5.44,0,0,0,.48,1.95,3.34,3.34,0,0,0,.84-1.85q0-1.09-.63-1.09T172.77,15.41Z" transform="translate(0 0.19)"/><path class="cls-1" d="M191.95,23.66h-1.74V13.55h4.84v1.51h-3.11v2.6h2.32v1.51h-2.32v4.48Z" transform="translate(0 0.19)"/><path class="cls-1" d="M202.36,19.51v4.14h-1.74V13.55h2.44a3.08,3.08,0,0,1,2.22.7,3.08,3.08,0,0,1,.72,2.28q0,2-1.22,2.55l1.47,4.58h-1.76l-1.23-4.19A7.6,7.6,0,0,1,202.36,19.51Zm0-4.54v3.11H203a1.26,1.26,0,0,0,1-.34,1.92,1.92,0,0,0,.29-1.22,1.92,1.92,0,0,0-.29-1.22,1.26,1.26,0,0,0-1-.34h-0.62Z" transform="translate(0 0.19)"/><path class="cls-1" d="M216.67,23.66h-4.84V13.55h4.65v1.51h-2.91v2.6h2.24v1.51h-2.24v3h3.11v1.51Z" transform="translate(0 0.19)"/><path class="cls-1" d="M227.09,23.66h-4.84V13.55h4.65v1.51H224v2.6h2.24v1.51H224v3h3.11v1.51Z" transform="translate(0 0.19)"/><path class="cls-1" d="M241.94,23.66H240.2V13.55h1.74V23.66Z" transform="translate(0 0.19)"/><path class="cls-1" d="M249.63,23.66h-1.57V13.55h1.61l2.11,5.78h0V13.55h1.57V23.66h-1.51l-2.21-6.31h0v6.31Z" transform="translate(0 0.19)"/><path class="cls-1" d="M264.07,15.86l-1.65.18a1.3,1.3,0,0,0-.31-0.86,0.86,0.86,0,0,0-.62-0.26,0.83,0.83,0,0,0-.87,1,1.52,1.52,0,0,0,.36.93,5.66,5.66,0,0,0,.88.9q0.52,0.43,1,.9a4.42,4.42,0,0,1,.88,1.14,2.91,2.91,0,0,1,.36,1.42,2.45,2.45,0,0,1-.75,1.91,2.86,2.86,0,0,1-2,.68,2.32,2.32,0,0,1-1.85-.81,3.19,3.19,0,0,1-.75-2l1.65-.24a2.28,2.28,0,0,0,.33,1.13,0.83,0.83,0,0,0,.71.39,1.08,1.08,0,0,0,.73-0.24,0.86,0.86,0,0,0,.27-0.69,1.74,1.74,0,0,0-.36-1,5,5,0,0,0-.88-0.92q-0.52-.42-1-0.87a4,4,0,0,1-.88-1.13,3,3,0,0,1-.36-1.47,2.43,2.43,0,0,1,.7-1.86,2.79,2.79,0,0,1,2-.66,2.16,2.16,0,0,1,1.66.67A3,3,0,0,1,264.07,15.86Z" transform="translate(0 0.19)"/><path class="cls-1" d="M270.68,23.66v-8.6H269V13.55h5.1v1.51h-1.68v8.6h-1.74Z" transform="translate(0 0.19)"/><path class="cls-1" d="M279.32,21.21V16a2.62,2.62,0,0,1,.68-1.86,3.06,3.06,0,0,1,4,0,2.62,2.62,0,0,1,.68,1.86v5.21a2.62,2.62,0,0,1-.68,1.86,3.06,3.06,0,0,1-4,0A2.62,2.62,0,0,1,279.32,21.21ZM281.06,16v5.12a1.38,1.38,0,0,0,.21.85,1.09,1.09,0,0,0,1.43,0,1.38,1.38,0,0,0,.21-0.85V16a1.38,1.38,0,0,0-.21-0.85,1.09,1.09,0,0,0-1.43,0A1.38,1.38,0,0,0,281.06,16Z" transform="translate(0 0.19)"/><path class="cls-1" d="M292.26,19.51v4.14h-1.74V13.55H293a3.08,3.08,0,0,1,2.22.7,3.08,3.08,0,0,1,.72,2.28q0,2-1.22,2.55l1.47,4.58h-1.76l-1.23-4.19A7.6,7.6,0,0,1,292.26,19.51Zm0-4.54v3.11h0.62a1.26,1.26,0,0,0,1-.34,1.92,1.92,0,0,0,.29-1.22,1.92,1.92,0,0,0-.29-1.22,1.26,1.26,0,0,0-1-.34h-0.62Z" transform="translate(0 0.19)"/><path class="cls-1" d="M306.56,23.66h-4.84V13.55h4.65v1.51h-2.91v2.6h2.24v1.51h-2.24v3h3.11v1.51Z" transform="translate(0 0.19)"/><path class="cls-1" d="M321.18,19.51v4.14h-1.74V13.55h2.44a3.08,3.08,0,0,1,2.22.7,3.08,3.08,0,0,1,.72,2.28q0,2-1.22,2.55l1.47,4.58h-1.76l-1.23-4.19A7.6,7.6,0,0,1,321.18,19.51Zm0-4.54v3.11h0.62a1.26,1.26,0,0,0,1-.34,1.92,1.92,0,0,0,.29-1.22,1.92,1.92,0,0,0-.29-1.22,1.26,1.26,0,0,0-1-.34h-0.62Z" transform="translate(0 0.19)"/><path class="cls-1" d="M335.49,23.66h-4.84V13.55h4.65v1.51h-2.91v2.6h2.24v1.51h-2.24v3h3.11v1.51Z" transform="translate(0 0.19)"/><path class="cls-1" d="M342.07,23.66v-8.6h-1.68V13.55h5.1v1.51H343.8v8.6h-1.74Z" transform="translate(0 0.19)"/><path class="cls-1" d="M350.7,21.11V13.55h1.74v7.63a0.94,0.94,0,1,0,1.85,0V13.55H356v7.56A2.67,2.67,0,1,1,350.7,21.11Z" transform="translate(0 0.19)"/><path class="cls-1" d="M363.64,19.51v4.14H361.9V13.55h2.44a3.08,3.08,0,0,1,2.22.7,3.08,3.08,0,0,1,.72,2.28q0,2-1.22,2.55l1.47,4.58h-1.76l-1.23-4.19A7.6,7.6,0,0,1,363.64,19.51Zm0-4.54v3.11h0.62a1.26,1.26,0,0,0,1-.34,1.92,1.92,0,0,0,.29-1.22,1.92,1.92,0,0,0-.29-1.22,1.26,1.26,0,0,0-1-.34h-0.62Z" transform="translate(0 0.19)"/><path class="cls-1" d="M374.67,23.66H373.1V13.55h1.61l2.11,5.78h0V13.55h1.57V23.66h-1.51l-2.21-6.31h0v6.31Z" transform="translate(0 0.19)"/><path class="cls-1" d="M389.12,15.86l-1.65.18a1.3,1.3,0,0,0-.31-0.86,0.86,0.86,0,0,0-.62-0.26,0.83,0.83,0,0,0-.87,1,1.52,1.52,0,0,0,.36.93,5.66,5.66,0,0,0,.88.9q0.52,0.43,1,.9a4.42,4.42,0,0,1,.88,1.14,2.91,2.91,0,0,1,.36,1.42,2.45,2.45,0,0,1-.75,1.91,2.86,2.86,0,0,1-2,.68,2.32,2.32,0,0,1-1.85-.81,3.19,3.19,0,0,1-.75-2l1.65-.24a2.28,2.28,0,0,0,.33,1.13,0.83,0.83,0,0,0,.71.39,1.08,1.08,0,0,0,.73-0.24,0.86,0.86,0,0,0,.27-0.69,1.74,1.74,0,0,0-.36-1,5,5,0,0,0-.88-0.92q-0.52-.42-1-0.87a4,4,0,0,1-.88-1.13,3,3,0,0,1-.36-1.47,2.43,2.43,0,0,1,.7-1.86,2.79,2.79,0,0,1,2-.66,2.16,2.16,0,0,1,1.66.67A3,3,0,0,1,389.12,15.86Z" transform="translate(0 0.19)"/></svg>